<svg width="226" height="167" viewBox="0 0 226 167" fill="none" xmlns="http://www.w3.org/2000/svg">
<g filter="url(#filter0_d_353_4587)">
<rect x="21.3229" y="21.3229" width="182.562" height="124.354" rx="14.5521" fill="white" stroke="#D9D9D9" stroke-width="2.64583"/>
<path fill-rule="evenodd" clip-rule="evenodd" d="M72.3875 100.65H64.1557C63.5924 100.65 63.1133 101.059 63.0255 101.615L59.6961 122.724C59.63 123.141 59.9525 123.516 60.375 123.516H64.305C64.8683 123.516 65.3474 123.107 65.4352 122.55L66.3332 116.856C66.4198 116.299 66.9001 115.89 67.4622 115.89H70.0681C75.4907 115.89 78.62 113.266 79.4377 108.066C79.8059 105.791 79.4533 104.004 78.3877 102.752C77.218 101.377 75.1425 100.65 72.3875 100.65ZM73.3372 108.36C72.8872 111.313 70.6303 111.313 68.448 111.313H67.2058L68.0773 105.797C68.129 105.464 68.4179 105.218 68.7549 105.218H69.3243C70.8108 105.218 72.2132 105.218 72.9379 106.065C73.3696 106.571 73.5021 107.322 73.3372 108.36ZM96.9944 108.265H93.0524C92.7165 108.265 92.4263 108.511 92.3745 108.844L92.2001 109.947L91.9244 109.547C91.0711 108.308 89.1683 107.894 87.2689 107.894C82.9124 107.894 79.1921 111.194 78.4674 115.822C78.0909 118.13 78.6261 120.338 79.9357 121.877C81.1372 123.293 82.8561 123.883 84.901 123.883C88.4107 123.883 90.3575 121.626 90.3575 121.626L90.1815 122.721C90.1152 123.14 90.4377 123.516 90.8577 123.516H94.4087C94.9735 123.516 95.4498 123.106 95.5389 122.549L97.6695 109.057C97.7369 108.642 97.4155 108.265 96.9944 108.265ZM91.4994 115.937C91.119 118.189 89.3315 119.701 87.0522 119.701C85.9075 119.701 84.9923 119.334 84.4052 118.638C83.8226 117.948 83.6009 116.964 83.7864 115.869C84.1417 113.636 85.9593 112.075 88.2041 112.075C89.3231 112.075 90.2333 112.446 90.8327 113.148C91.4331 113.857 91.6715 114.847 91.4994 115.937ZM114.027 108.264H117.989C118.544 108.264 118.867 108.887 118.552 109.342L105.377 128.359C105.164 128.667 104.812 128.851 104.437 128.851H100.48C99.9232 128.851 99.5979 128.223 99.9204 127.767L104.023 121.976L99.6597 109.172C99.5088 108.727 99.8374 108.264 100.311 108.264H104.203C104.709 108.264 105.155 108.596 105.301 109.08L107.617 116.814L113.081 108.766C113.294 108.452 113.65 108.264 114.027 108.264Z" fill="#253B80"/>
<path fill-rule="evenodd" clip-rule="evenodd" d="M156.977 122.724L160.356 101.229C160.407 100.895 160.696 100.65 161.032 100.649H164.836C165.256 100.649 165.578 101.025 165.512 101.442L162.18 122.55C162.093 123.107 161.614 123.516 161.05 123.516H157.653C157.233 123.516 156.911 123.141 156.977 122.724ZM131.104 100.65H122.871C122.309 100.65 121.83 101.059 121.742 101.615L118.413 122.724C118.346 123.141 118.669 123.516 119.089 123.516H123.314C123.706 123.516 124.042 123.23 124.104 122.84L125.048 116.856C125.135 116.299 125.615 115.89 126.177 115.89H128.782C134.206 115.89 137.334 113.266 138.153 108.066C138.522 105.791 138.167 104.004 137.102 102.751C135.933 101.377 133.859 100.65 131.104 100.65ZM132.054 108.359C131.605 111.313 129.348 111.313 127.164 111.313H125.923L126.796 105.797C126.848 105.464 127.134 105.218 127.472 105.218H128.042C129.527 105.218 130.931 105.218 131.655 106.065C132.087 106.571 132.219 107.322 132.054 108.359ZM155.709 108.265H151.77C151.431 108.265 151.144 108.51 151.093 108.844L150.918 109.946L150.642 109.547C149.788 108.308 147.887 107.894 145.987 107.894C141.631 107.894 137.912 111.194 137.187 115.822C136.811 118.13 137.344 120.338 138.654 121.877C139.858 123.293 141.574 123.882 143.619 123.882C147.129 123.882 149.075 121.625 149.075 121.625L148.9 122.721C148.834 123.14 149.156 123.515 149.579 123.515H153.128C153.69 123.515 154.169 123.106 154.257 122.549L156.389 109.057C156.454 108.642 156.132 108.265 155.709 108.265ZM150.214 115.937C149.836 118.189 148.046 119.701 145.767 119.701C144.624 119.701 143.707 119.334 143.12 118.638C142.537 117.947 142.318 116.964 142.501 115.869C142.858 113.636 144.674 112.075 146.919 112.075C148.038 112.075 148.948 112.446 149.548 113.148C150.15 113.857 150.389 114.847 150.214 115.937Z" fill="#179BD7"/>
<path d="M102.852 93.0986L103.864 86.6706L101.61 86.6182H90.8452L98.3259 39.1846C98.3488 39.0414 98.4245 38.9079 98.5348 38.8131C98.6451 38.7183 98.7866 38.666 98.9336 38.666H117.084C123.11 38.666 127.268 39.9199 129.439 42.3948C130.457 43.5559 131.105 44.7691 131.419 46.1043C131.748 47.5053 131.754 49.1791 131.432 51.2205L131.409 51.3696V52.6776L132.427 53.2543C133.284 53.709 133.965 54.2295 134.488 54.8255C135.359 55.8182 135.922 57.0798 136.16 58.5756C136.405 60.114 136.324 61.9445 135.922 64.0169C135.457 66.4009 134.706 68.4772 133.693 70.1762C132.76 71.7416 131.572 73.0398 130.161 74.0463C128.814 75.0021 127.214 75.7279 125.405 76.1925C123.651 76.6487 121.653 76.8793 119.46 76.8793H118.048C117.038 76.8793 116.056 77.243 115.287 77.8953C114.515 78.5609 114.003 79.47 113.847 80.4648L113.74 81.0436L111.952 92.3728L111.871 92.7889C111.85 92.9209 111.813 92.9866 111.759 93.0312C111.711 93.0713 111.641 93.0986 111.573 93.0986H102.852Z" fill="#253B80"/>
<path d="M133.391 51.5212C133.337 51.8676 133.275 52.2217 133.205 52.5855C130.811 64.8749 122.623 69.1204 112.163 69.1204H106.838C105.559 69.1204 104.482 70.0492 104.282 71.3108L101.556 88.6025L100.784 93.5037C100.654 94.332 101.293 95.079 102.128 95.079H111.574C112.692 95.079 113.642 94.2663 113.818 93.1634L113.911 92.6833L115.689 81.3981L115.804 80.7792C115.977 79.6724 116.929 78.8597 118.048 78.8597H119.46C128.611 78.8597 135.775 75.1444 137.869 64.3931C138.743 59.9019 138.29 56.1518 135.976 53.5143C135.276 52.719 134.407 52.0592 133.391 51.5212Z" fill="#179BD7"/>
<path d="M130.886 50.5232C130.52 50.4168 130.143 50.32 129.756 50.2329C129.367 50.1478 128.968 50.0724 128.558 50.0066C127.122 49.7744 125.549 49.6641 123.864 49.6641H109.637C109.287 49.6641 108.954 49.7434 108.656 49.8866C108 50.202 107.513 50.8232 107.395 51.5836L104.368 70.7521L104.281 71.3113C104.48 70.0497 105.558 69.1208 106.837 69.1208H112.162C122.621 69.1208 130.811 64.8735 133.204 52.586C133.276 52.2222 133.336 51.8681 133.39 51.5217C132.784 51.2005 132.128 50.9257 131.422 50.6915C131.248 50.6335 131.068 50.5774 130.886 50.5232Z" fill="#222D65"/>
<path d="M107.395 51.5834C107.513 50.8229 108.001 50.2018 108.657 49.8883C108.957 49.7451 109.288 49.6658 109.637 49.6658H123.864C125.55 49.6658 127.123 49.776 128.558 50.0083C128.969 50.0741 129.368 50.1495 129.756 50.2346C130.144 50.3218 130.521 50.4185 130.887 50.5249C131.068 50.5791 131.248 50.6352 131.424 50.6913C132.13 50.9255 132.787 51.2022 133.392 51.5215C134.105 46.9799 133.387 43.8877 130.931 41.0877C128.224 38.0052 123.338 36.6855 117.086 36.6855H98.9349C97.6577 36.6855 96.5687 37.6143 96.3709 38.8779L88.8111 86.7991C88.6618 87.7472 89.3932 88.6028 90.349 88.6028H101.555L104.369 70.7519L107.395 51.5834Z" fill="#253B80"/>
</g>
<defs>
<filter id="filter0_d_353_4587" x="0" y="0" width="225.208" height="167" filterUnits="userSpaceOnUse" color-interpolation-filters="sRGB">
<feFlood flood-opacity="0" result="BackgroundImageFix"/>
<feColorMatrix in="SourceAlpha" type="matrix" values="0 0 0 0 0 0 0 0 0 0 0 0 0 0 0 0 0 0 127 0" result="hardAlpha"/>
<feOffset/>
<feGaussianBlur stdDeviation="10"/>
<feComposite in2="hardAlpha" operator="out"/>
<feColorMatrix type="matrix" values="0 0 0 0 0 0 0 0 0 0 0 0 0 0 0 0 0 0 0.07 0"/>
<feBlend mode="normal" in2="BackgroundImageFix" result="effect1_dropShadow_353_4587"/>
<feBlend mode="normal" in="SourceGraphic" in2="effect1_dropShadow_353_4587" result="shape"/>
</filter>
</defs>
</svg>
