<svg width="226" height="167" viewBox="0 0 226 167" fill="none" xmlns="http://www.w3.org/2000/svg">
<g filter="url(#filter0_d_353_4566)">
<rect x="21.3229" y="21.3229" width="182.562" height="124.354" rx="14.5521" fill="white" stroke="#D9D9D9" stroke-width="2.64583"/>
<path fill-rule="evenodd" clip-rule="evenodd" d="M76.2253 106.033H65.0053L56.5916 73.9349C56.1923 72.4584 55.3444 71.153 54.0971 70.5378C50.9844 68.9917 47.5543 67.7613 43.8125 67.1407V65.9049H61.8871C64.3816 65.9049 66.2526 67.7613 66.5644 69.9172L70.9299 93.071L82.1444 65.9049H93.0526L76.2253 106.033ZM99.2891 106.033H88.6927L97.4182 65.9049H108.015L99.2891 106.033ZM121.724 77.0216C122.035 74.8603 123.906 73.6245 126.089 73.6245C129.519 73.3142 133.256 73.9348 136.374 75.4755L138.245 66.8356C135.126 65.5998 131.696 64.9792 128.584 64.9792C118.299 64.9792 110.815 70.5377 110.815 78.252C110.815 84.1207 116.116 87.2022 119.858 89.0585C123.906 90.9095 125.466 92.1453 125.154 93.9964C125.154 96.7729 122.035 98.0087 118.923 98.0087C115.181 98.0087 111.439 97.0832 108.015 95.5371L106.144 104.182C109.885 105.723 113.934 106.344 117.675 106.344C129.207 106.649 136.374 101.095 136.374 92.7606C136.374 82.2643 121.724 81.6491 121.724 77.0216ZM173.458 106.033L165.045 65.9049H156.007C154.136 65.9049 152.266 67.1407 151.642 68.9917L136.062 106.033H146.97L149.147 100.17H162.55L163.797 106.033H173.458ZM157.566 76.7111L160.679 91.8349H151.954L157.566 76.7111Z" fill="#172B85"/>
</g>
<defs>
<filter id="filter0_d_353_4566" x="0" y="0" width="225.208" height="167" filterUnits="userSpaceOnUse" color-interpolation-filters="sRGB">
<feFlood flood-opacity="0" result="BackgroundImageFix"/>
<feColorMatrix in="SourceAlpha" type="matrix" values="0 0 0 0 0 0 0 0 0 0 0 0 0 0 0 0 0 0 127 0" result="hardAlpha"/>
<feOffset/>
<feGaussianBlur stdDeviation="10"/>
<feComposite in2="hardAlpha" operator="out"/>
<feColorMatrix type="matrix" values="0 0 0 0 0 0 0 0 0 0 0 0 0 0 0 0 0 0 0.07 0"/>
<feBlend mode="normal" in2="BackgroundImageFix" result="effect1_dropShadow_353_4566"/>
<feBlend mode="normal" in="SourceGraphic" in2="effect1_dropShadow_353_4566" result="shape"/>
</filter>
</defs>
</svg>
