<svg width="60" height="59" viewBox="0 0 60 59" fill="none" xmlns="http://www.w3.org/2000/svg">
<path fill-rule="evenodd" clip-rule="evenodd" d="M34.0448 0.557449C29.8558 1.05679 26.4711 2.24229 23.2547 4.33665C21.1042 5.73696 18.9585 7.70962 17.4314 9.69052C16.7594 10.5622 16.6281 10.8059 16.6281 11.1827C16.6281 11.71 17.0399 12.1202 17.5692 12.1202C17.9672 12.1202 18.1978 11.9204 18.9266 10.9444C19.7032 9.90427 21.3094 8.24588 22.3751 7.38371C26.758 3.83778 32.1306 2.11719 37.6665 2.48649C47.5583 3.14656 55.7108 10.3527 57.6841 20.1805C58.0537 22.0214 58.133 25.3504 57.8539 27.319C57.3944 30.561 56.2877 33.5158 54.4607 36.3779C53.6468 37.6529 51.4459 40.2324 51.3691 40.0013C51.3455 39.9303 51.4094 39.4687 51.5111 38.9756C51.6128 38.4825 51.6961 37.9352 51.6961 37.7593C51.6961 37.0387 50.6545 36.6534 50.1051 37.1707C49.8939 37.3697 49.7459 37.9283 49.2786 40.2913C48.469 44.3855 48.383 44.294 52.3178 43.5212C53.7498 43.2399 55.0858 42.9434 55.2867 42.8623C55.9874 42.5795 56.043 41.6376 55.3843 41.2051C55.1082 41.0236 54.9832 41.0169 54.2356 41.1431C53.7742 41.2209 53.2647 41.3185 53.1035 41.3598C52.8693 41.4198 52.9755 41.2594 53.6315 40.5631C59.0567 34.8043 61.2469 26.3017 59.3015 18.5525C56.8643 8.84492 48.6982 1.71638 38.7362 0.600482C37.7499 0.489962 34.8351 0.463272 34.0448 0.557449ZM35.8041 4.73746C35.3368 5.006 35.2839 5.20058 35.2801 6.66192C35.2765 7.99639 35.2926 8.09703 35.5477 8.33735C35.9197 8.68761 36.5614 8.67985 36.8979 8.32089C37.1294 8.07375 37.1528 7.92337 37.1528 6.68437C37.1528 5.93401 37.12 5.23444 37.08 5.1298C37.0021 4.92652 36.4437 4.59308 36.1911 4.59895C36.1073 4.60095 35.9331 4.66327 35.8041 4.73746ZM26.2808 7.35854C25.8021 7.69469 25.824 8.15111 26.3673 9.15308C27.1398 10.5779 27.3593 10.8269 27.8425 10.8269C28.0692 10.8269 28.3513 10.775 28.4693 10.7118C28.7585 10.5566 28.9602 9.94695 28.8331 9.61186C28.6232 9.05855 27.535 7.32457 27.3538 7.25484C27.0257 7.12869 26.5416 7.17548 26.2808 7.35854ZM44.9819 7.32903C44.6243 7.60404 43.6035 9.53308 43.6035 9.9339C43.6035 10.7302 44.6795 11.1522 45.2062 10.5623C45.6217 10.0969 46.5356 8.37944 46.5356 8.06399C46.5356 7.39617 45.5195 6.91552 44.9819 7.32903ZM7.77319 7.45719C7.51517 7.54278 7.11934 7.70821 6.89356 7.82485C6.34127 8.1102 2.07823 12.3456 1.4225 13.2605C-2.3822 18.5687 1.63959 29.9399 11.1645 40.8055C18.4802 49.1511 27.6241 55.6338 35.1004 57.7754C37.1673 58.3675 38.0424 58.4963 40.0263 58.4999C42.157 58.5038 42.8505 58.3684 44.3072 57.6641C45.1045 57.2787 45.435 56.9898 47.8364 54.579C50.9688 51.4345 51.0435 51.3193 51.0481 49.6265C51.0507 48.6598 51.0096 48.4225 50.7431 47.8628C50.5739 47.5072 50.222 47.0045 49.9613 46.7459C49.434 46.2227 38.7242 40.1144 37.9001 39.867C37.6288 39.7855 37.0234 39.7429 36.4963 39.7682C35.0523 39.8374 34.7361 40.0428 32.1683 42.5783C30.9427 43.7885 29.771 44.8642 29.5646 44.9687C29.0701 45.2189 28.2719 45.2099 27.7602 44.9483C27.2282 44.6764 24.8473 42.774 23.1001 41.2247C19.7548 38.2582 14.3853 32.3417 13.5528 30.7048C13.2966 30.2009 13.2855 29.5367 13.524 28.9646C13.6345 28.6997 14.5568 27.669 15.914 26.2936C17.1296 25.0619 18.2314 23.8407 18.3624 23.5799C18.8303 22.649 18.9111 21.2633 18.5543 20.2916C18.5068 20.1623 17.0644 17.5499 15.3489 14.4864C13.2621 10.7596 12.0747 8.75956 11.7609 8.44246C11.0766 7.75113 10.198 7.38324 9.12431 7.33832C8.60544 7.31669 8.04916 7.3656 7.77319 7.45719ZM9.94318 9.47841C10.1047 9.56013 10.3278 9.72802 10.4392 9.85136C10.7094 10.1506 16.5654 20.5886 16.7322 21.0681C17.0697 22.039 16.7678 22.7474 15.4622 24.0478C14.9462 24.5616 14.5039 24.9584 14.4793 24.9296C14.4545 24.9007 13.4181 22.9988 12.176 20.7031C10.9339 18.4075 9.81194 16.4367 9.6827 16.3235C9.36802 16.0478 8.87027 16.0636 8.49273 16.3615C7.89294 16.8343 7.97527 17.0499 10.588 21.85C11.9104 24.2794 12.9923 26.3187 12.9923 26.382C12.9923 26.4451 12.785 26.7222 12.5315 26.998C11.3613 28.2707 11.0882 29.9885 11.8066 31.5591C12.0597 32.1123 13.4723 33.9518 15.2529 36.0466C18.5057 39.8736 25.0919 45.8592 27.0664 46.7829C27.5861 47.0261 27.8939 47.0854 28.6498 47.0887C29.7552 47.0935 30.5676 46.778 31.5178 45.9748L32.0963 45.4858L33.3383 46.1538C34.676 46.8731 35.0292 46.9206 35.4635 46.4395C35.7119 46.1644 35.7422 45.4968 35.5185 45.2266C35.4324 45.1226 34.9485 44.8106 34.4432 44.5334L33.5247 44.0292L34.547 43.0115C35.9766 41.5885 36.5602 41.3832 37.6806 41.9089C39.0859 42.5683 48.3835 47.9034 48.6703 48.215C49.4796 49.0943 49.3077 50.4797 48.2645 51.4838L47.8617 51.8714L43.3398 49.3968C40.8527 48.0358 38.6924 46.9222 38.5391 46.9222C37.8562 46.9222 37.3977 47.621 37.6676 48.2506C37.8098 48.5822 38.3436 48.907 42.1409 50.9727L46.4529 53.3184L45.2791 54.4539C43.4044 56.2674 42.4006 56.6315 39.5572 56.5293C37.5844 56.4584 36.3819 56.2093 34.1621 55.4121C23.4961 51.5809 10.8158 39.8889 4.99907 28.5218C2.90051 24.421 1.96529 21.2857 1.96939 18.3656C1.97268 15.9815 2.43325 14.8797 4.13786 13.1779C4.74633 12.5705 5.26378 12.0973 5.28783 12.1262C5.31199 12.1552 5.55488 12.5892 5.8278 13.0905C6.10072 13.592 6.42232 14.0549 6.54241 14.1193C7.1625 14.452 7.94912 13.9869 7.94912 13.2875C7.94912 13.059 7.70529 12.4697 7.31649 11.759L6.68374 10.6023L7.30371 10.0147C7.64465 9.69134 8.0745 9.39341 8.25887 9.35237C8.44324 9.31134 8.64696 9.26031 8.71147 9.23891C8.90006 9.17625 9.62464 9.3171 9.94318 9.47841ZM19.379 14.29C19.0524 14.6174 19.0031 15.1165 19.261 15.4856C19.5268 15.866 21.4699 16.9407 21.8917 16.9407C22.5675 16.9407 23.0123 16.1897 22.6954 15.5836C22.4855 15.1821 20.4735 14.0014 19.9991 14.0014C19.8028 14.0014 19.5491 14.1194 19.379 14.29ZM50.964 14.6694C50.1104 15.1713 49.7985 15.421 49.7108 15.6732C49.4917 16.3034 49.9177 16.9298 50.5704 16.937C50.9178 16.9409 52.5853 16.0585 53.0742 15.6122C53.6426 15.0933 53.2068 14.0014 52.4312 14.0014C52.2403 14.0014 51.6196 14.2839 50.964 14.6694ZM28.3093 16.3521C26.394 16.9652 24.9545 18.7945 24.9114 20.6697C24.8984 21.2353 24.9354 21.344 25.2258 21.5947C25.4067 21.751 25.6879 21.8789 25.8505 21.8789C26.2575 21.8789 26.8316 21.2827 26.8326 20.8592C26.8338 20.1514 27.0868 19.6091 27.7047 18.9898C29.0309 17.6602 30.9661 17.6602 32.2924 18.9898C33.157 19.8565 33.3888 20.8609 32.9877 22.0008C32.6055 23.0868 31.791 23.7663 28.9641 25.3572C26.0971 26.9706 24.9806 28.3197 24.9182 30.2459C24.9001 30.8061 24.9418 30.9602 25.181 31.2159L25.4654 31.52H29.9445C34.2342 31.52 34.4362 31.5101 34.7196 31.2867C34.8822 31.1584 35.0488 30.9199 35.0897 30.7566C35.1752 30.415 34.9119 29.8219 34.626 29.7118C34.5216 29.6717 32.7779 29.6388 30.7512 29.6388C26.4703 29.6388 26.5897 29.6841 27.8122 28.5241C28.2897 28.0711 29.081 27.523 30.0113 27.0012C32.058 25.8534 33.0286 25.1775 33.721 24.4179C36.7684 21.0754 34.5075 16.094 29.9569 16.1241C29.3601 16.128 28.7417 16.2136 28.3093 16.3521ZM38.7809 16.2361C38.6765 16.2973 38.5341 16.4941 38.4645 16.6734C38.2878 17.1291 36.3319 26.0447 36.3319 26.3944C36.3319 27.3515 36.5453 27.4049 40.3723 27.4049H43.6035V29.2187V31.0326L43.9125 31.2763C44.3307 31.6062 44.836 31.5884 45.1921 31.2313C45.472 30.9508 45.48 30.8944 45.48 29.1875V27.4323L46.2582 27.3827C46.9295 27.3397 47.0744 27.2886 47.3137 27.0096C47.6869 26.5747 47.6658 26.1683 47.2483 25.7498C46.9447 25.4454 46.8241 25.4061 46.1927 25.4061H45.48V21.0717C45.48 16.8648 45.4729 16.7282 45.2369 16.4275C44.9122 16.0137 44.2285 15.995 43.8584 16.3898C43.606 16.6592 43.6035 16.7069 43.6035 21.034V25.4061H41.0416H38.4798L39.3997 21.2675C39.9056 18.9911 40.3195 17.0312 40.3195 16.9118C40.3195 16.5513 39.7913 16.1173 39.3572 16.1213C39.1447 16.1233 38.8854 16.1749 38.7809 16.2361ZM52.4491 23.4566C51.7552 23.7595 51.6741 24.66 52.3011 25.1003C52.6865 25.3708 55.0451 25.3708 55.4305 25.1003C56.0563 24.6608 55.9624 23.7473 55.2611 23.4534C54.7565 23.242 52.936 23.2442 52.4491 23.4566ZM21.5541 31.7187C21.0531 31.9106 19.227 33.0651 19.1641 33.2299C19.0302 33.5793 19.0888 33.9544 19.3238 34.2539C19.7376 34.7813 20.0556 34.7632 21.182 34.1485C22.3624 33.5043 22.8442 33.0707 22.8442 32.6526C22.8442 32.0847 22.0671 31.5221 21.5541 31.7187ZM50.1714 31.7897C49.7656 31.9955 49.54 32.5015 49.674 32.9056C49.7935 33.2666 50.3223 33.6594 51.5249 34.2807C52.2481 34.6544 52.3925 34.6914 52.6882 34.5788C53.1198 34.4143 53.3296 34.1343 53.3343 33.7167C53.3405 33.1719 53.1641 32.9905 51.956 32.2987C50.7179 31.5898 50.6205 31.562 50.1714 31.7897ZM27.4639 37.8876C27.1625 38.0341 25.8936 40.1963 25.8936 40.5633C25.8936 40.9336 26.5062 41.5138 26.8969 41.5138C27.3382 41.5138 27.8379 40.9436 28.452 39.7394C28.8819 38.8967 28.9404 38.7005 28.8407 38.4375C28.6193 37.8537 28.0235 37.6157 27.4639 37.8876ZM43.8914 38.0401C43.4515 38.481 43.5169 38.9239 44.1982 40.1176C44.9726 41.4741 45.2936 41.701 45.9894 41.3833C46.2812 41.25 46.5356 40.8326 46.5356 40.487C46.5356 40.1127 45.2685 38.0349 44.9521 37.8904C44.4938 37.681 44.2095 37.7211 43.8914 38.0401Z" fill="#7988FD"/>
</svg>
