<svg width="60" height="39" viewBox="0 0 60 39" fill="none" xmlns="http://www.w3.org/2000/svg">
<path fill-rule="evenodd" clip-rule="evenodd" d="M10.772 0.682704C10.2786 0.896818 9.86908 1.26427 9.64661 1.69238C9.48626 2.00082 6.43422 18.9879 6.43422 19.5717C6.43422 19.9703 6.92699 20.4407 7.34451 20.4407C7.70073 20.4407 8.13278 20.1161 8.23734 19.77C8.27215 19.655 8.96864 15.7595 9.78504 11.1135C10.6014 6.46753 11.3221 2.60034 11.3863 2.51963C11.4788 2.40348 15.0283 2.37297 28.4263 2.37297C37.7341 2.37297 45.3495 2.41321 45.3495 2.46225C45.3495 2.51141 44.6902 6.28944 43.8844 10.8577C43.0785 15.4262 42.4192 19.3418 42.4192 19.5592C42.4192 19.8463 42.5036 20.0208 42.728 20.1975C43.4333 20.7529 44.1092 20.3203 44.3186 19.1794L44.4532 18.4462H50.3557C55.4179 18.4462 56.3198 18.472 56.6922 18.6278C57.4201 18.9321 57.8676 19.4607 58.0532 20.2353L58.1304 20.558H56.4195C54.7094 20.558 54.7086 20.5581 54.3865 20.8806C54.1109 21.1567 54.0339 21.3926 53.8536 22.515C53.5958 24.1186 53.6631 24.7159 54.1772 25.389C54.7263 26.1078 55.4018 26.4241 56.3884 26.4241C57.1619 26.4241 57.1905 26.4342 57.1336 26.6881C57.1012 26.8333 56.9379 27.744 56.7707 28.7119C56.6037 29.6798 56.4268 30.5134 56.3777 30.5642C56.3286 30.6151 55.7729 30.6415 55.1426 30.6229L53.9968 30.5891L53.7326 29.8579C53.1137 28.1455 51.5894 26.9288 49.7324 26.6653C47.2919 26.3191 44.5861 27.6365 43.1238 29.8831C42.597 30.6924 42.2286 30.9035 42.3524 30.3251C42.3903 30.1477 42.6819 28.5255 43.0002 26.7204C43.6292 23.1529 43.6292 23.0399 42.9972 22.6854C42.6116 22.4691 42.1281 22.5856 41.8878 22.9524C41.7493 23.1642 40.4265 30.0474 40.4265 30.5569C40.4265 30.6068 36.5216 30.6477 31.749 30.6477C24.9122 30.6477 23.0606 30.6166 23.0205 30.5011C22.5773 29.2243 22.414 28.9297 21.7638 28.2339C20.922 27.3331 19.9743 26.8337 18.7877 26.6653C16.3483 26.3192 13.6102 27.6546 12.1613 29.897L11.6763 30.6477H9.07472C7.64399 30.6477 6.447 30.6213 6.41476 30.5892C6.38253 30.5569 6.44078 30.0686 6.54405 29.504L6.73171 28.4773L9.07378 28.4186C10.362 28.3863 11.4766 28.3204 11.5509 28.2722C12.0454 27.9505 11.8704 26.8764 11.2871 26.6544C11.0848 26.5773 9.10766 26.5463 5.76258 26.5673L0.552965 26.6001L0.270242 26.9293C-0.0767136 27.333 -0.0891384 27.7029 0.230389 28.1095L0.473258 28.4186H2.63329C3.82127 28.4186 4.79309 28.4581 4.79286 28.5066C4.79263 28.5551 4.70975 29.0679 4.60872 29.6463C4.50756 30.2247 4.45763 30.8725 4.4976 31.0859C4.59688 31.6156 5.18916 32.2589 5.71124 32.4041C5.94778 32.4698 7.25168 32.5238 8.60902 32.5242L11.0769 32.5249L11.0915 33.4928C11.1575 37.8565 15.867 39.942 19.8111 37.3541C21.4859 36.2553 22.5318 34.7365 23.0356 32.6716C23.0638 32.5558 25.0655 32.5249 32.5558 32.5249H42.0402L42.0868 33.6819C42.129 34.7335 42.173 34.9198 42.5711 35.7259C43.263 37.1272 44.4638 38.048 46.0293 38.3775C46.9307 38.5674 47.6529 38.5392 48.6889 38.2741C51.0358 37.6733 52.969 35.8414 53.7454 33.4824L54.0606 32.5249H55.6888C57.6048 32.5249 57.9306 32.4188 58.1227 31.7323C58.3433 30.9443 60.0014 21.2401 60 20.7458C59.995 19.0035 58.6786 17.1935 57.1114 16.774C56.5171 16.6149 56.5758 16.8765 56.3118 13.2077C56.0915 10.1445 56.0881 10.3509 56.3592 10.3509C56.7534 10.3509 57.0216 9.84338 57.1754 8.80648C57.4566 6.90972 56.7884 5.52121 55.2542 4.81375C54.6857 4.55154 54.5517 4.54239 50.7857 4.50707L46.9032 4.47058L47.064 3.62715C47.3885 1.92421 47.1831 1.15293 46.2849 0.701358C45.902 0.508714 44.8166 0.496396 28.5292 0.500619C13.299 0.504491 11.1315 0.526665 10.772 0.682704ZM54.3382 6.48713C55.0405 6.75345 55.5368 7.56274 55.3803 8.18666L55.3084 8.47375H50.758H46.2077L46.3705 7.5645C46.46 7.06447 46.5555 6.58931 46.5824 6.5086C46.6469 6.3163 53.8351 6.29636 54.3382 6.48713ZM54.2579 10.6628C54.2579 10.9294 54.5974 15.5835 54.6566 16.1291L54.7045 16.569H49.7214C45.7842 16.569 44.7498 16.5383 44.7927 16.4224C44.8225 16.3418 45.0748 14.9691 45.3533 13.372L45.8596 10.4682H50.0587C53.8911 10.4682 54.2579 10.4852 54.2579 10.6628ZM34.4847 15.6316C34.3434 15.6885 34.141 15.8678 34.0348 16.03C33.7045 16.5346 33.8954 16.9374 34.8568 17.7639L35.7188 18.5048L23.5863 18.5635L11.4537 18.6222L11.2296 18.8992C10.9177 19.2847 10.9441 19.8031 11.2934 20.1526L11.581 20.4407L23.3958 20.4428L35.2105 20.445L34.2141 21.0915C33.0923 21.8194 32.8076 22.1047 32.8076 22.5003C32.8076 22.8487 33.2458 23.344 33.6344 23.435C34.0591 23.5342 38.8689 20.4066 39.1254 19.8644C39.3921 19.3009 39.1635 18.9965 37.2031 17.3043C35.0553 15.4502 35.0074 15.4208 34.4847 15.6316ZM57.8496 22.6405C57.8177 22.7533 57.7302 23.2285 57.6552 23.6964L57.5187 24.547H56.7473C55.5736 24.547 55.401 24.3025 55.6742 23.0275L55.8011 22.4352H56.8542C57.801 22.4352 57.9015 22.4559 57.8496 22.6405ZM3.01225 22.9091C2.71405 23.2076 2.66775 23.3273 2.72859 23.6424C2.76856 23.8496 2.9125 24.1115 3.04835 24.2243C3.27891 24.4159 3.8971 24.4296 12.3132 24.4296H21.3312L21.6188 24.1416C22.0872 23.6729 21.9688 23.0148 21.3575 22.6889C21.1694 22.5886 18.751 22.5525 12.2351 22.5525H3.36858L3.01225 22.9091ZM25.5871 26.709C24.9991 26.9652 24.8721 27.721 25.3426 28.1635L25.614 28.4186H31.9653C38.1604 28.4186 38.3224 28.4129 38.5511 28.184C38.8025 27.9323 38.8602 27.3695 38.6708 27.0153C38.4334 26.5714 37.9988 26.5413 31.8817 26.546C27.1687 26.5497 25.8758 26.5832 25.5871 26.709ZM19.5306 28.8479C21.6679 29.8575 21.7771 32.9811 19.746 35.014C17.9578 36.8037 15.447 37.1332 13.9653 35.7727C13.2596 35.1248 12.977 34.4707 12.9707 33.4709C12.95 30.1449 16.6925 27.5074 19.5306 28.8479ZM50.502 28.8692C50.8972 29.0635 51.2879 29.3756 51.5244 29.6859C52.9359 31.5382 51.8683 34.6977 49.3902 36.0025C47.6101 36.9396 45.9479 36.8111 44.8152 35.6485C44.0973 34.9117 43.8981 34.3145 43.9601 33.085C44.1186 29.9453 47.8279 27.5549 50.502 28.8692ZM16.2507 30.8905C15.2727 31.4073 14.8261 32.8723 15.4084 33.653C15.855 34.2518 16.2353 34.4524 16.9238 34.4524C18.8715 34.4524 19.7917 31.8055 18.175 30.8531C17.7078 30.5778 16.8093 30.5953 16.2507 30.8905ZM47.1954 30.8905C46.2239 31.4039 45.7748 32.8765 46.3531 33.6526C46.7973 34.2486 47.1807 34.4524 47.8582 34.4524C49.8011 34.4524 50.7578 31.8714 49.1773 30.8938C48.6636 30.5759 47.7935 30.5745 47.1954 30.8905Z" fill="#7988FD"/>
</svg>
