<svg width="64" height="65" viewBox="0 0 64 65" fill="none" xmlns="http://www.w3.org/2000/svg">
<path fill-rule="evenodd" clip-rule="evenodd" d="M17.4928 6.7407C16.607 7.08962 15.5926 8.07119 15.1703 8.98815C14.8706 9.63865 14.8303 9.85858 14.8303 10.8423C14.8303 11.8027 14.8734 12.0505 15.1391 12.6186C15.6604 13.7332 16.5986 14.6142 19.0116 16.2551C19.6697 16.7027 20.1831 17.0689 20.1524 17.0689C20.1217 17.0689 18.6497 16.4873 16.8811 15.7765C15.1126 15.0658 13.5429 14.4842 13.3929 14.4842C12.7246 14.4842 12.3053 15.4678 12.7501 15.9924C12.8715 16.1356 14.6047 16.8957 16.9983 17.8558L21.0414 19.4773L14.1063 19.536C7.33844 19.5933 7.16324 19.6006 6.84037 19.8366C6.65849 19.9696 6.39094 20.3113 6.24598 20.5957L5.9823 21.1131V29.9319C5.9823 39.5559 5.953 39.1338 6.63869 39.3951C6.96776 39.5206 7.47016 39.3629 7.69763 39.063C7.81928 38.9024 7.85069 37.1092 7.85362 30.1388L7.85737 21.4157H25.9635H44.0696V30.0833C44.0696 37.8405 44.0893 38.7791 44.2573 39.0195C44.5157 39.3893 44.9228 39.5254 45.3375 39.3804C45.7717 39.2287 45.9325 38.9038 45.9718 38.0983L46.0033 37.4521H51.6871C54.8132 37.4521 57.5611 37.4928 57.7935 37.5424C58.4233 37.6769 59.2714 38.2934 59.6 38.8556C59.7599 39.1289 59.8905 39.414 59.8905 39.4891C59.8905 39.5862 59.4231 39.6256 58.2703 39.6256C56.101 39.6256 56.1404 39.5873 56.1404 41.6954C56.1404 43.1018 56.1642 43.2693 56.4439 43.8321C56.9924 44.9353 58.0074 45.4997 59.4431 45.4997H60.1249V47.5557V49.6116H58.8959H57.6671L57.4962 49.2017C57.0566 48.147 55.8997 46.8918 54.8502 46.331C53.1109 45.4016 50.9581 45.4061 49.2052 46.3427C48.3507 46.7993 47.1427 48.0613 46.7083 48.951C46.4867 49.4051 46.317 49.6116 46.1654 49.6116C45.954 49.6116 45.9447 49.4563 45.9447 45.9056V42.1995L45.657 41.9112C45.3079 41.5611 44.7901 41.5347 44.4049 41.8473L44.1282 42.0717L44.0943 45.8417L44.0603 49.6116H34.3445H24.6286L24.1973 48.789C23.2138 46.9127 21.0913 45.6172 19.0008 45.6172C16.8214 45.6172 14.7054 46.8995 13.7143 48.821L13.3068 49.6108L10.5821 49.6112L7.85737 49.6116V48.5543V47.4969H10.0893C12.3028 47.4969 12.3237 47.4946 12.6089 47.2085C12.9895 46.8271 12.9895 46.2871 12.6089 45.9056L12.3213 45.6172H7.44719H2.57307L2.28548 45.9056C1.90484 46.2871 1.90484 46.8271 2.28548 47.2085C2.56451 47.4884 2.62416 47.4969 4.27774 47.4969H5.9823V48.7056C5.9823 50.1819 6.22828 50.8038 6.97843 51.2246C7.42645 51.4759 7.56919 51.4876 10.2072 51.4895L12.9672 51.4914L13.0934 52.3698C13.2487 53.45 13.8399 54.7359 14.5494 55.5361C16.469 57.701 19.8591 58.1397 22.2583 56.5336C23.7864 55.5106 24.6008 54.0997 24.9143 51.9319L24.978 51.4914H35.4989H46.0198L46.1596 52.3929C46.5134 54.6736 48.1275 56.5909 50.2462 57.247C51.2728 57.5648 52.8006 57.5661 53.822 57.2498C55.9571 56.5886 57.5737 54.676 57.9191 52.4019L58.0575 51.4914H59.7411C61.3723 51.4914 61.4336 51.4824 61.7123 51.2029L62 50.9146L61.9986 45.4169C61.9975 41.1357 61.9617 39.7855 61.8365 39.3143C61.3777 37.5868 59.9767 36.1575 58.3361 35.7434L57.8049 35.6093L57.0404 32.5455L56.276 29.4816L56.6317 29.1486L56.9872 28.8155L56.9387 27.6121C56.9027 26.7188 56.8266 26.2672 56.6429 25.8594C56.2951 25.0867 55.5262 24.2964 54.7507 23.9146L54.0895 23.5892L50.0269 23.5541L45.9641 23.5191L45.9251 22.1232C45.883 20.6118 45.7942 20.3722 45.0794 19.837C44.7633 19.6004 44.5953 19.5933 37.8326 19.536L30.9092 19.4773L34.9576 17.8553C37.1842 16.9632 39.0993 16.1299 39.2135 16.0034C39.6751 15.4921 39.248 14.4834 38.5705 14.4848C38.4045 14.4852 37.0821 14.9649 35.6318 15.5507C34.1816 16.1367 32.7446 16.7172 32.4384 16.8408C32.1321 16.9643 31.8817 17.0475 31.8817 17.0256C31.8817 17.0038 32.264 16.7317 32.7313 16.4211C34.949 14.947 36.3943 13.6185 36.8132 12.6692C37.7932 10.4483 36.864 7.87664 34.7173 6.86781C34.1267 6.59032 33.9079 6.55413 32.8192 6.55413C31.6404 6.55413 31.5577 6.57105 30.8489 6.95628C30.442 7.17738 29.8883 7.60584 29.6184 7.90824C28.8283 8.79359 27.7422 11.1756 26.5362 14.668L25.9837 16.2682L25.3781 14.5245C23.5965 9.3937 22.6081 7.67163 20.9867 6.87345C20.0968 6.43524 18.4291 6.37192 17.4928 6.7407ZM20.533 8.79171C21.1593 9.23298 21.7798 10.362 22.7249 12.7807C23.4817 14.7174 24.3156 17.1741 24.2413 17.2485C24.1702 17.3198 21.8812 15.9188 20.1251 14.7293C18.1508 13.392 17.0822 12.4213 16.8166 11.7241C16.366 10.5414 16.844 9.22417 17.9359 8.63946C18.3762 8.40367 18.593 8.36396 19.2492 8.39897C19.8924 8.43339 20.1257 8.5047 20.533 8.79171ZM33.9665 8.59869C34.8342 9.04477 35.3178 9.85247 35.3187 10.8573C35.3199 12.0853 34.571 12.9102 31.7071 14.8355C30.0884 15.9236 27.7726 17.3357 27.7098 17.2726C27.5802 17.1426 29.6342 11.5934 30.3199 10.2212C30.6739 9.51271 31.3655 8.73838 31.8231 8.53819C32.3567 8.30463 33.455 8.33565 33.9665 8.59869ZM53.8296 25.5719C54.4966 25.858 55.0857 26.6673 55.0857 27.2975C55.0857 27.5184 54.9563 27.5248 50.5152 27.5248H45.9447V26.4675V25.4101H49.6986C52.6255 25.4101 53.5356 25.4457 53.8296 25.5719ZM12.3851 27.7684L12.0763 28.0118V32.4677C12.0763 36.7669 12.0845 36.9317 12.3107 37.1584C12.562 37.4104 13.1242 37.4682 13.478 37.2784C13.833 37.0879 13.9513 36.4955 13.9513 34.9088V33.399H15.1733C16.3539 33.399 16.4036 33.3885 16.6382 33.0894C16.8824 32.7783 16.9435 32.4063 16.8084 32.0532C16.6668 31.6835 16.1144 31.5193 15.0119 31.5193H13.9513V30.4619V29.4046L15.6213 29.4008C17.3622 29.3969 17.5341 29.3538 17.7996 28.8543C18.0103 28.4575 17.9649 28.2408 17.5933 27.8682L17.2508 27.5248H14.9723C12.8447 27.5248 12.6734 27.5409 12.3851 27.7684ZM19.378 27.8083L19.0492 28.0919V32.5181V36.9443L19.3259 37.1688C19.6905 37.4648 20.3307 37.4598 20.6313 37.1584C20.8359 36.9533 20.8657 36.7669 20.8657 35.6899V34.4563H21.6812H22.4967L23.4684 35.8955C24.4057 37.2838 24.4561 37.336 24.8928 37.3719C25.2346 37.4001 25.4142 37.3445 25.6253 37.1459C26.0765 36.7209 25.9882 36.3383 25.1491 35.0804L24.3934 33.9474L24.9708 33.3142C26.2779 31.8803 26.2322 29.9458 24.8589 28.5775C23.9595 27.6816 23.4338 27.5248 21.3275 27.5248C19.7833 27.5248 19.6913 27.5382 19.378 27.8083ZM27.3645 27.8133L27.0768 28.1016V32.492V36.8825L27.348 37.138C27.6084 37.3832 27.716 37.3934 30.035 37.3934H32.4507L32.6935 37.0838C33.0129 36.6768 33.0005 36.3063 32.6538 35.9021C32.3716 35.573 32.3683 35.5723 30.6615 35.532L28.9519 35.4916V34.4453V33.399H30.162C31.2753 33.399 31.3924 33.3773 31.6269 33.1271C31.9436 32.7891 31.9573 32.2264 31.6579 31.8554C31.4525 31.601 31.3312 31.5747 30.193 31.5379L28.9519 31.4979V30.4512V29.4046H30.6565C32.31 29.4046 32.3697 29.396 32.6487 29.1161C32.8301 28.9344 32.9364 28.6936 32.9364 28.4647C32.9364 28.2358 32.8301 27.995 32.6487 27.8133C32.3624 27.5261 32.3502 27.5248 30.0066 27.5248C27.663 27.5248 27.6508 27.5261 27.3645 27.8133ZM34.4171 27.7684L34.1083 28.0118V32.4677C34.1083 36.7669 34.1165 36.9317 34.3427 37.1584C34.5622 37.3785 34.7333 37.3934 37.0296 37.3934H39.4822L39.725 37.0838C40.0445 36.6768 40.032 36.3063 39.6853 35.9021C39.4031 35.573 39.3998 35.5723 37.693 35.532L35.9834 35.4916V34.4453V33.399H36.6736C37.4798 33.399 37.8196 33.1859 37.9304 32.6107C37.9913 32.2951 37.945 32.1753 37.6468 31.8764C37.3351 31.5639 37.2089 31.5193 36.637 31.5193H35.9834V30.4619V29.4046H37.6318C38.5384 29.4046 39.3749 29.3537 39.4908 29.2915C39.8384 29.105 40.0211 28.5246 39.8571 28.1275C39.6336 27.5866 39.3336 27.5248 36.9313 27.5248C34.8776 27.5248 34.7046 27.5416 34.4171 27.7684ZM23.2022 29.6192C24.3103 30.215 24.2803 31.7936 23.1506 32.3418C22.7491 32.5367 22.4671 32.5801 21.7844 32.5526L20.9243 32.5179L20.8916 30.9612L20.8589 29.4046H21.831C22.5485 29.4046 22.9075 29.4607 23.2022 29.6192ZM55.0462 32.2829C55.4433 33.8337 55.773 35.1951 55.7786 35.3081C55.7882 35.5008 55.4803 35.5137 50.8668 35.5137H45.9447V32.4576V29.4016L50.1343 29.4324L54.3239 29.4633L55.0462 32.2829ZM60.1249 42.5627V43.62H59.4128C58.7819 43.62 58.6614 43.5808 58.358 43.2766C58.0546 42.9724 58.0155 42.8517 58.0155 42.2193V41.5053H59.0702H60.1249V42.5627ZM4.27774 41.9112C3.89066 42.2991 3.90988 42.7354 4.33259 43.1591L4.67514 43.5025H10.963H17.2508L17.5933 43.1591C17.7818 42.9702 17.9359 42.7297 17.9359 42.6246C17.9359 42.3343 17.6169 41.778 17.4032 41.6957C17.2989 41.6557 14.3677 41.6228 10.8895 41.6228H4.56533L4.27774 41.9112ZM26.405 45.8482C26.2689 45.9753 26.1223 46.1906 26.0792 46.3268C25.9694 46.6739 26.2177 47.2065 26.5629 47.3642C26.7689 47.4583 28.9688 47.4969 34.1192 47.4969H41.3849L41.6725 47.2085C41.8539 47.0268 41.9602 46.7859 41.9602 46.5571C41.9602 46.3282 41.8539 46.0874 41.6725 45.9056L41.3849 45.6172H34.0186C26.8565 45.6172 26.6454 45.6237 26.405 45.8482ZM20.6852 47.8909C23.2822 49.0827 23.8112 52.6669 21.6744 54.5928C20.8201 55.3628 20.0032 55.6382 18.7562 55.5766C17.508 55.5149 16.8156 55.1864 15.9629 54.251C13.5382 51.5915 15.589 47.3369 19.1945 47.5468C19.7677 47.5801 20.2513 47.6917 20.6852 47.8909ZM53.7444 47.8958C55.7311 48.807 56.6391 51.2384 55.7362 53.229C54.6019 55.7296 51.3681 56.4074 49.3313 54.5716C47.7992 53.1906 47.5497 50.9892 48.7303 49.268C49.8477 47.6391 51.9377 47.0671 53.7444 47.8958ZM18.3306 49.7395C17.8391 49.8823 17.1676 50.6476 17.0683 51.178C16.9082 52.0335 17.349 52.9417 18.0969 53.2974C19.4012 53.918 20.8657 52.9937 20.8657 51.5501C20.8657 50.7742 20.5287 50.2377 19.8145 49.876C19.2625 49.5965 18.9286 49.5657 18.3306 49.7395ZM51.2207 49.876C50.937 50.0214 50.6058 50.2766 50.485 50.4431C50.0198 51.0842 50.0203 52.0408 50.486 52.7534C50.7403 53.1426 51.4711 53.4886 52.0387 53.4886C54.1159 53.4886 54.7048 50.6973 52.8097 49.8344C52.1805 49.548 51.8439 49.5568 51.2207 49.876Z" fill="#7988FD"/>
</svg>
