<svg width="40" height="54" viewBox="0 0 40 54" fill="none" xmlns="http://www.w3.org/2000/svg">
<path fill-rule="evenodd" clip-rule="evenodd" d="M19.216 0.619253C19.0401 0.670488 18.356 1.03896 17.6957 1.43798C16.3438 2.25504 16.2933 2.26477 14.7919 1.99794C14.2526 1.90199 13.5713 1.85303 13.1657 1.88108C12.1216 1.95301 11.6936 2.26394 10.5636 3.77128L9.63544 5.0094L8.9651 5.19054C8.59641 5.29021 7.91183 5.4701 7.44373 5.59038C6.49163 5.83496 5.90751 6.20023 5.51407 6.79693C5.36205 7.02744 5.09649 7.80372 4.86754 8.68662L4.47895 10.1852L3.245 11.1167C1.31503 12.5737 1.1395 13.0162 1.49416 15.5299L1.68238 16.8645L1.45941 17.3028C1.33679 17.5438 0.981712 18.1785 0.67026 18.7132C-0.279257 20.3437 -0.239861 21.0195 0.916122 22.937C1.72115 24.2725 1.72177 24.2755 1.48674 25.7109C1.09784 28.0865 1.35504 28.7116 3.29801 30.1134C3.86522 30.5228 4.38263 30.9572 4.4477 31.0789C4.51267 31.2005 4.71728 31.9021 4.9023 32.6378C5.38505 34.558 5.90936 35.197 7.32925 35.5957C7.69011 35.6971 7.97732 35.82 7.96752 35.8689C7.95773 35.9178 6.64365 38.8809 5.0474 42.4535C2.86517 47.3374 2.16255 49.0068 2.21556 49.1813C2.31291 49.5019 2.54413 49.7468 2.81072 49.8117C2.93417 49.8418 4.0918 49.7385 5.3833 49.5822C7.50189 49.3259 7.74476 49.3138 7.86759 49.4592C7.94236 49.5479 8.59022 50.4651 9.30728 51.4975C10.0243 52.53 10.6854 53.4032 10.7763 53.4382C11.0728 53.5525 11.4132 53.5054 11.6274 53.3207C11.7429 53.2211 13.1647 50.1614 14.7869 46.5213C16.4091 42.8811 17.754 39.8852 17.7756 39.8636C17.7971 39.842 18.0101 39.948 18.2489 40.0992C19.4444 40.8568 20.6327 40.8519 21.7905 40.0849C22.0096 39.9397 22.2241 39.8601 22.2672 39.9078C22.3104 39.9555 23.6522 42.9289 25.2492 46.5153C27.1862 50.8656 28.2396 53.1136 28.4135 53.269C28.7642 53.582 29.1337 53.564 29.4728 53.2172C29.6259 53.0607 30.317 52.112 31.0085 51.109C32.0881 49.5432 32.299 49.2908 32.5011 49.3226C32.6306 49.3429 33.7245 49.4772 34.932 49.621C36.4995 49.8075 37.1838 49.852 37.3245 49.7764C37.5795 49.6394 37.8415 49.2616 37.8415 49.0308C37.8415 48.9311 36.542 45.9393 34.9538 42.3825C33.3656 38.8256 32.0662 35.8742 32.0662 35.8237C32.0662 35.7733 32.321 35.6747 32.6326 35.6048C32.944 35.5348 33.4182 35.3294 33.6864 35.1484C34.4348 34.6431 34.718 34.1494 35.0671 32.7417C35.2354 32.0626 35.4238 31.3788 35.4857 31.2219C35.5554 31.045 36.0198 30.6257 36.7071 30.1189C38.6545 28.6832 38.9012 28.081 38.5133 25.7109C38.2782 24.2755 38.2788 24.2725 39.0839 22.937C40.2399 21.0195 40.2793 20.3437 39.3297 18.7132C39.0183 18.1785 38.6632 17.5438 38.5406 17.3028L38.3176 16.8645L38.5058 15.5299C38.8605 13.0162 38.685 12.5737 36.755 11.1167L35.521 10.1852L35.1335 8.68434C34.5236 6.32267 34.2131 6.01102 31.8599 5.39889L30.3646 5.00992L29.4364 3.77149C28.3064 2.26384 27.8786 1.95301 26.8343 1.88108C26.4287 1.85303 25.7474 1.90199 25.2081 1.99794C23.7073 2.26467 23.6556 2.25473 22.3093 1.44098C20.769 0.51016 20.1529 0.346415 19.216 0.619253ZM21.4034 2.84585C23.1752 3.92188 23.3515 3.95604 25.5336 3.64552C26.5231 3.50476 26.8435 3.49275 27.0533 3.5887C27.1995 3.65556 27.7147 4.24689 28.1982 4.90269C28.6818 5.5585 29.2526 6.21151 29.4669 6.35383C29.6891 6.50132 30.4342 6.76277 31.2009 6.96223C32.5841 7.32201 32.8757 7.43276 33.0758 7.67486C33.1397 7.75197 33.3554 8.46129 33.5554 9.25113C33.7757 10.1211 34.0227 10.8445 34.1822 11.0864C34.3285 11.3082 34.973 11.8774 35.6322 12.3669C36.2849 12.8516 36.8724 13.3659 36.9376 13.5096C37.0282 13.7091 37.024 14.008 36.9197 14.7727C36.7042 16.3542 36.6734 17.1182 36.8089 17.5303C36.8772 17.7378 37.2569 18.4524 37.6527 19.1181C38.5205 20.5773 38.5233 20.6759 37.7344 21.9391C36.6422 23.6884 36.558 24.0713 36.8603 25.9179C37.0558 27.1121 37.0547 27.5248 36.8553 27.8104C36.7668 27.9375 36.1938 28.4121 35.582 28.8655C34.9285 29.3497 34.3527 29.8671 34.1859 30.1199C33.9995 30.4026 33.7849 31.0301 33.5602 31.949C33.3039 32.9979 33.1558 33.4106 32.9678 33.5993C32.7827 33.7849 32.3629 33.9404 31.3652 34.193C29.5434 34.6541 29.2773 34.8268 28.2606 36.209C27.8021 36.8323 27.3235 37.4151 27.1969 37.504C26.9087 37.7065 26.3793 37.7083 25.2596 37.5104C23.502 37.1997 23.1275 37.2823 21.411 38.3597C20.0976 39.1841 19.9042 39.1774 18.4105 38.2565C16.8345 37.2848 16.454 37.2074 14.7404 37.5104C13.6207 37.7083 13.0913 37.7065 12.8031 37.504C12.6765 37.4151 12.1979 36.8323 11.7394 36.209C10.7227 34.8268 10.4566 34.6541 8.63478 34.193C6.886 33.7504 6.86692 33.7315 6.47008 32.0621C6.03384 30.2268 5.84986 29.9376 4.45667 28.8969C3.82047 28.4217 3.22871 27.9309 3.14177 27.8063C2.94531 27.5248 2.94479 27.1082 3.13971 25.9179C3.44105 24.0768 3.36907 23.7404 2.30281 22.0105C1.47364 20.6652 1.47488 20.5853 2.34726 19.1181C2.74307 18.4524 3.12279 17.7378 3.19106 17.5303C3.32658 17.1182 3.29584 16.3542 3.0803 14.7727C2.97604 14.008 2.97181 13.7091 3.06236 13.5096C3.12764 13.3659 3.71507 12.8516 4.36778 12.3669C5.02698 11.8774 5.67154 11.3082 5.81778 11.0864C5.97794 10.8434 6.2235 10.1226 6.44481 9.24585C6.70006 8.23409 6.87631 7.73748 7.03595 7.57953C7.19116 7.42614 7.72104 7.23682 8.70284 6.98396C9.56222 6.76277 10.3013 6.50784 10.5367 6.35134C10.7539 6.20716 11.3259 5.55394 11.8093 4.89834C12.2923 4.24326 12.8056 3.65318 12.95 3.58715C13.1556 3.49316 13.4848 3.5059 14.4664 3.64552C16.6525 3.95666 16.8417 3.92012 18.5991 2.84947C19.2487 2.45367 19.8423 2.16354 20.0025 2.16354C20.1621 2.16354 20.7573 2.45336 21.4034 2.84585ZM17.8946 5.6296C13.0222 6.3294 8.68242 9.4569 6.55227 13.8035C5.90843 15.1172 5.56955 16.0941 5.23386 17.6048C4.92024 19.0157 4.89291 22.0028 5.18106 23.382C5.67381 25.7414 6.82361 28.3206 7.98403 29.6699C8.30713 30.0455 8.42047 30.1098 8.75936 30.1098C9.06545 30.1098 9.20539 30.0473 9.37009 29.8371C9.48766 29.6871 9.58388 29.4636 9.58388 29.3405C9.58388 29.2173 9.28284 28.6615 8.91488 28.1053C7.83861 26.4784 7.24964 25.0777 6.83959 23.1695C6.57692 21.9471 6.57702 19.227 6.8399 18.0039C7.22901 16.1929 7.90286 14.5665 8.87857 13.0833C9.56233 12.0439 11.3513 10.2301 12.3692 9.54415C16.2614 6.92134 20.8982 6.44636 25.1556 8.2342C25.6382 8.43686 26.1409 8.6271 26.2726 8.65701C26.8507 8.78815 27.3543 8.12324 27.1153 7.54423C27.017 7.30597 26.813 7.14978 26.2519 6.88356C25.3224 6.44232 23.8126 5.95709 22.6814 5.7359C21.4662 5.49836 19.1641 5.44723 17.8946 5.6296ZM28.784 9.33787C28.6473 9.48402 28.5598 9.71079 28.5598 9.91905C28.5598 10.2051 28.6891 10.394 29.3544 11.0802C29.7915 11.5309 30.2564 11.9267 30.3877 11.9598C30.9546 12.1026 31.5531 11.5018 31.4109 10.9329C31.3779 10.8011 30.9835 10.3345 30.5344 9.89586C29.8371 9.2149 29.6661 9.09836 29.3631 9.09836C29.1256 9.09836 28.9341 9.17754 28.784 9.33787ZM19.5875 10.9678C19.0192 11.0944 18.69 11.6006 17.5764 14.0595C16.6835 16.0311 16.5105 16.3439 16.2873 16.3894C16.1455 16.4184 14.9621 16.5647 13.6575 16.7145C12.0359 16.9009 11.1878 17.0427 10.9764 17.1626C10.2976 17.5482 10.0057 18.4558 10.3472 19.1187C10.4269 19.2732 11.355 20.2042 12.4098 21.1879C13.4648 22.1716 14.3279 23.0357 14.3279 23.1081C14.3279 23.1805 14.119 24.2819 13.8638 25.5556C13.6085 26.8293 13.3997 28.0655 13.3997 28.3025C13.3997 29.1395 14.1769 29.8602 14.974 29.7627C15.2165 29.7329 16.2338 29.2267 17.6848 28.4138L20.0074 27.1125L22.3235 28.4139C23.7714 29.2274 24.7847 29.733 25.0269 29.7628C25.8231 29.8602 26.6003 29.1389 26.6003 28.3025C26.6003 28.0655 26.3915 26.8293 26.1362 25.5556C25.881 24.2819 25.6721 23.1814 25.6721 23.1102C25.6721 23.0389 26.5337 22.1778 27.5866 21.1967C28.6397 20.2155 29.5679 19.2834 29.6492 19.1255C29.9941 18.4562 29.706 17.5517 29.0236 17.1614C28.8106 17.0396 27.9767 16.8999 26.3425 16.7122C25.0379 16.5623 23.8545 16.4163 23.7127 16.3878C23.4896 16.343 23.317 16.0331 22.4321 14.0886C21.4128 11.8487 21.0779 11.2522 20.7435 11.0809C20.4488 10.93 19.9681 10.8829 19.5875 10.9678ZM21.139 15.2668C21.7328 16.5636 22.3104 17.6849 22.4355 17.7837C22.6061 17.9183 23.2942 18.0357 25.2495 18.2635C26.6731 18.4294 27.8379 18.5924 27.8379 18.6258C27.8379 18.659 27.2925 19.1903 26.6261 19.8063C24.2704 21.9839 23.9189 22.3532 23.9189 22.6509C23.9189 22.8034 24.1273 23.9967 24.382 25.3028C24.6366 26.6089 24.8455 27.7318 24.8461 27.7982C24.8466 27.8647 23.9918 27.4365 22.9465 26.8467C20.5198 25.4775 20.2645 25.3486 19.978 25.3486C19.848 25.3486 18.7091 25.9275 17.4472 26.6351C16.1853 27.3426 15.1533 27.8665 15.1538 27.7995C15.1542 27.7323 15.363 26.6062 15.6175 25.2968C15.8721 23.9875 16.0805 22.7917 16.0808 22.6396C16.0812 22.3185 16.0476 22.2827 13.8092 20.2128C12.9033 19.375 12.1621 18.6614 12.1621 18.6268C12.1621 18.5923 13.3107 18.4338 14.7146 18.2746C16.6595 18.054 17.3283 17.9412 17.5243 17.8006C17.698 17.676 18.1304 16.8561 18.8576 15.2721C19.4496 13.9828 19.964 12.928 20.0009 12.928C20.0378 12.928 20.55 13.9805 21.139 15.2668ZM32.0727 13.5939C31.7641 13.9235 31.8169 14.342 32.3189 15.5436C32.5273 16.0429 32.8196 16.9046 32.9682 17.4584C33.2144 18.3764 33.239 18.6441 33.2453 20.4839C33.2509 22.1094 33.2147 22.6634 33.0593 23.3302C32.4207 26.0723 31.1694 28.3197 29.2372 30.1956C26.687 32.6716 23.5534 33.9488 20 33.9606C17.2234 33.9699 14.6586 33.1836 12.3901 31.6277C11.4185 30.9611 11.0632 30.8928 10.6621 31.2955C10.1324 31.8269 10.4317 32.3607 11.7256 33.1923C15.7104 35.7535 20.4015 36.3489 24.7955 34.8512C29.2616 33.3291 32.7327 29.8001 34.2329 25.2567C34.8364 23.4288 34.99 22.2787 34.9235 20.0883C34.866 18.194 34.7115 17.2469 34.2284 15.8262C33.8895 14.8298 33.3291 13.6429 33.1234 13.4862C32.8284 13.2615 32.3366 13.3119 32.0727 13.5939ZM33.0972 42.3C34.4748 45.3897 35.5827 47.9369 35.5592 47.9605C35.5358 47.9841 34.6748 47.9037 33.6458 47.7819C32.247 47.6163 31.7138 47.5885 31.5318 47.6718C31.398 47.7329 30.8021 48.486 30.2077 49.3453C29.6134 50.2045 29.1038 50.9081 29.0754 50.9088C28.9742 50.9109 23.7432 39.0622 23.8306 39.0284C23.8795 39.0093 24.4131 39.0714 25.0163 39.1664C25.6195 39.2613 26.3112 39.339 26.5533 39.339H26.9934L28.358 42.4096C29.7382 45.5154 30.0567 46.0495 30.5288 46.0495C30.8171 46.0495 31.3447 45.5009 31.3425 45.2036C31.3415 45.0711 30.715 43.5676 29.9503 41.8623C29.1855 40.1571 28.5598 38.7254 28.5598 38.6807C28.5598 38.636 28.7608 38.3312 29.0065 38.0032C29.2523 37.6753 29.6534 37.1321 29.8979 36.7961C30.3378 36.1916 30.3438 36.1879 30.4675 36.4338C30.5363 36.5706 31.7197 39.2104 33.0972 42.3ZM10.4131 37.2258C10.7689 37.7239 11.1651 38.2479 11.2933 38.3902L11.5263 38.6489L10.1287 41.7541C9.31832 43.5543 8.72821 44.9984 8.72429 45.1904C8.71181 45.8087 9.32791 46.1877 9.87976 45.9013C10.1296 45.7716 10.3886 45.2679 11.6055 42.5438L13.0372 39.339H13.4705C13.7089 39.339 14.4188 39.2594 15.0483 39.1621C15.6777 39.0648 16.2132 39.0057 16.2381 39.0309C16.2777 39.0705 11.0833 50.7894 10.9804 50.8928C10.9588 50.9143 10.5778 50.4084 10.1337 49.7686C9.68948 49.1286 9.15094 48.3794 8.93695 48.1036C8.47266 47.5052 8.5301 47.5113 6.13491 47.8073C5.23056 47.9191 4.47493 47.9948 4.45575 47.9756C4.39799 47.9177 9.60461 36.3201 9.68845 36.3201C9.73115 36.3201 10.0572 36.7277 10.4131 37.2258Z" fill="#7988FD"/>
</svg>
