<svg width="60" height="61" viewBox="0 0 60 61" fill="none" xmlns="http://www.w3.org/2000/svg">
<path fill-rule="evenodd" clip-rule="evenodd" d="M23.1797 2.02238C20.9955 3.7632 21.5316 3.60535 18.3995 3.43051C16.7358 3.33758 16.4288 3.34766 16.1926 3.50223C16.0419 3.60113 15.3391 4.56125 14.631 5.63586L13.3434 7.58984L11.1541 8.19301C8.55164 8.90996 8.58434 8.89777 8.41406 9.215C8.34023 9.35234 8.01012 10.4532 7.68035 11.6612L7.08082 13.8575L5.13281 15.1358C4.06137 15.8389 3.10336 16.5385 3.00375 16.6905C2.8473 16.9292 2.83734 17.2299 2.93051 18.8995C3.10535 22.0316 3.2632 21.4955 1.52238 23.6797C0.685078 24.7303 0 25.6916 0 25.816C0 25.9404 0.375586 27.0452 0.834609 28.2711L1.66922 30.5L0.834609 32.7289C0.375586 33.9548 0 35.0597 0 35.184C0 35.3084 0.685078 36.2697 1.52238 37.3203C3.2632 39.5045 3.10535 38.9684 2.93051 42.1005C2.83734 43.7701 2.8473 44.0708 3.00375 44.3095C3.10336 44.4615 4.06137 45.1611 5.13281 45.8642L7.08082 47.1425L7.68633 49.3388C8.39766 51.9194 8.39602 51.9148 8.70176 52.0786C8.83195 52.1482 9.92965 52.4763 11.141 52.8077L13.3434 53.4102L14.631 55.3641C15.3391 56.4388 16.0419 57.3989 16.1926 57.4978C16.4288 57.6523 16.7358 57.6624 18.3995 57.5695C21.5316 57.3946 20.9955 57.2368 23.1797 58.9776C24.2321 59.8164 25.198 60.5 25.3308 60.5C25.4633 60.5 26.5684 60.1245 27.7866 59.6656L30.0013 58.8313L32.2296 59.6656C33.4552 60.1245 34.5597 60.5 34.684 60.5C34.8084 60.5 35.7697 59.8149 36.8203 58.9776C39.0045 57.2368 38.4684 57.3946 41.6005 57.5695C43.2642 57.6624 43.5713 57.6523 43.8074 57.4978C43.9581 57.3989 44.6604 56.4402 45.3679 55.3671L46.6542 53.416L48.8447 52.8181C50.0495 52.4892 51.1477 52.1598 51.285 52.0859C51.6021 51.9158 51.5899 51.9484 52.3092 49.3511L52.9141 47.167L54.8686 45.8704C55.9436 45.1573 56.9029 44.4522 57.0002 44.3035C57.1518 44.0722 57.1618 43.7539 57.0695 42.1005C56.8946 38.9684 56.7368 39.5045 58.4776 37.3203C59.3149 36.2697 60 35.3084 60 35.184C60 35.0597 59.6244 33.9548 59.1654 32.7289L58.3308 30.5L59.1654 28.2711C59.6244 27.0452 60 25.9404 60 25.816C60 25.6916 59.3149 24.7303 58.4776 23.6797C56.7368 21.4955 56.8946 22.0316 57.0695 18.8995C57.1618 17.2461 57.1518 16.9278 57.0002 16.6965C56.9029 16.5478 55.9436 15.8427 54.8686 15.1296L52.9141 13.833L52.3092 11.6489C51.5899 9.05164 51.6021 9.08422 51.285 8.91406C51.1477 8.84023 50.0495 8.51082 48.8447 8.18188L46.6542 7.58398L45.3679 5.63293C44.6604 4.55984 43.9581 3.60113 43.8074 3.50223C43.5713 3.34766 43.2642 3.33758 41.6005 3.43051C38.4584 3.60582 38.9862 3.75781 36.9115 2.08109C35.9139 1.27484 34.9741 0.582383 34.8231 0.542188C34.6356 0.492266 33.8271 0.738477 32.2739 1.31855L29.9993 2.16805L27.7855 1.33402C26.5679 0.875352 25.4633 0.5 25.3308 0.5C25.198 0.5 24.2321 1.18355 23.1797 2.02238ZM28.3301 3.55051L30 4.1709L31.6699 3.55051C32.5883 3.20926 33.5858 2.83402 33.8864 2.71684L34.433 2.50355L36.2803 3.97484L38.1277 5.44613L40.5014 5.36141L42.8752 5.27668L44.0662 7.07773C44.7214 8.06844 45.3319 8.9627 45.4228 9.06512C45.5138 9.16754 46.5327 9.50469 47.6871 9.81418C48.8416 10.1238 49.8492 10.4161 49.9263 10.4636C50.0033 10.5113 50.3374 11.5453 50.6687 12.7614L51.2711 14.9727L53.2471 16.3039L55.223 17.6352L55.1384 20.0037L55.0539 22.3723L56.5252 24.2197L57.9964 26.067L57.7832 26.6136C57.666 26.9142 57.2907 27.9117 56.9495 28.8301L56.3291 30.5L56.9495 32.1699C57.2907 33.0884 57.6668 34.088 57.7852 34.3913L58.0003 34.9427L56.7134 36.5366C54.8632 38.8279 55.0402 38.3227 55.1391 41.0315L55.2243 43.364L53.2477 44.6957L51.2711 46.0273L50.6687 48.2386C50.3374 49.4547 50.0033 50.4887 49.9263 50.5364C49.8492 50.5839 48.8416 50.8762 47.6871 51.1858C46.5327 51.4953 45.5138 51.8325 45.4228 51.9349C45.3319 52.0373 44.7214 52.9316 44.0662 53.9223L42.8752 55.7233L40.5014 55.6386L38.1277 55.5539L36.2803 57.0252L34.433 58.4964L33.8864 58.2832C33.5858 58.166 32.5884 57.7907 31.6699 57.4495L30 56.8291L28.3301 57.4495C27.4117 57.7907 26.4166 58.165 26.119 58.2811L25.5777 58.4922L23.8924 57.1427C22.9655 56.4004 22.1085 55.7395 21.9881 55.6741C21.8455 55.5965 20.9591 55.5846 19.4467 55.6399L17.1243 55.7246L15.8804 53.8443C15.1963 52.8103 14.5732 51.9124 14.496 51.8491C14.4187 51.7858 13.3848 51.468 12.1983 51.1428C11.0119 50.8177 10.0049 50.4931 9.9607 50.4214C9.91641 50.3498 9.6293 49.3582 9.32273 48.2178C9.01617 47.0776 8.70938 46.0761 8.64105 45.9925C8.57273 45.9089 7.6752 45.2868 6.64664 44.6101L4.77645 43.3798L4.86129 41.0037L4.94613 38.6277L3.47484 36.7803L2.00355 34.933L2.21684 34.3864C2.33402 34.0858 2.70926 33.0884 3.05051 32.1699L3.6709 30.5L3.05051 28.8301C2.70926 27.9117 2.33402 26.9142 2.21684 26.6136L2.00355 26.067L3.47484 24.2197L4.94613 22.3723L4.86129 19.9963L4.77645 17.6202L6.64664 16.3899C7.6752 15.7132 8.57273 15.0911 8.64105 15.0075C8.70938 14.9239 9.01617 13.9224 9.32273 12.7822C9.6293 11.6418 9.91641 10.6502 9.9607 10.5786C10.0049 10.5069 11.0119 10.1823 12.1983 9.85719C13.3848 9.53199 14.4187 9.21418 14.496 9.1509C14.5732 9.08762 15.1963 8.18973 15.8804 7.15566L17.1243 5.27539L19.4467 5.36012C20.9591 5.41543 21.8455 5.40348 21.9881 5.3259C22.1085 5.26051 22.9655 4.59957 23.8924 3.8573L25.5777 2.50777L26.119 2.71895C26.4166 2.83496 27.4116 3.20926 28.3301 3.55051ZM28.2422 6.54887C20.6393 7.2452 14.2262 10.9877 10.0323 17.1755C4.35246 25.556 4.72336 37.0127 10.9354 45.0669C11.7073 46.0678 11.8823 46.2031 12.4057 46.2031C12.8175 46.2031 13.2422 45.7437 13.2422 45.2983C13.2422 45.1229 12.9037 44.5617 12.3732 43.8575C8.65746 38.9247 7.15793 32.7825 8.19527 26.7441C10.3041 14.4691 22.1925 6.34391 34.3945 8.83824C36.6926 9.30793 38.9559 10.1634 41.0203 11.3425C41.6384 11.6955 42.2617 11.9844 42.4055 11.9844C42.8061 11.9844 43.2422 11.4786 43.2422 11.0141C43.2422 10.5048 43.0127 10.2976 41.543 9.47984C39.2104 8.18199 36.2302 7.18402 33.4587 6.77246C32.1834 6.58309 29.2438 6.45711 28.2422 6.54887ZM44.9572 12.8132C44.7254 12.9955 44.6484 13.1616 44.6484 13.4795C44.6484 13.8539 44.7613 14.0158 45.6227 14.8773C46.7368 15.9914 47.0153 16.0809 47.5871 15.509C48.1623 14.9339 48.0067 14.5264 46.764 13.3542C45.8442 12.4865 45.5026 12.3842 44.9572 12.8132ZM34.7735 14.0986C33.3579 14.4499 32.1094 15.86 32.1094 17.1076C32.1094 18.254 29.854 20.2747 27.6221 21.1278C26.3187 21.6262 25.9836 21.8362 24.9609 22.7963L24.082 23.6216L20.1562 23.633C16.2421 23.6445 16.2293 23.6454 15.8479 23.9175C15.0182 24.5093 15.0622 24.0052 15.0254 33.3125C14.996 40.7717 15.013 41.7457 15.1804 42.1862C15.4025 42.7708 15.8934 43.2177 16.4978 43.3855C17.0923 43.5506 22.8913 43.5443 23.4906 43.3778C23.7454 43.3072 24.133 43.0701 24.3519 42.8512L24.75 42.4531H32.6055C38.4786 42.4531 40.5829 42.4168 40.9434 42.3091C41.6811 42.0888 42.589 41.1424 42.821 40.3517C43.054 39.5578 43.0509 39.3774 42.7916 38.627L42.583 38.0236L42.9579 37.7244C43.8034 37.0498 44.1894 35.5298 43.7701 34.5264L43.595 34.1073L44.1206 33.5227C44.6441 32.9403 45.0043 32.0859 44.9961 31.4455C44.994 31.28 44.8917 30.8545 44.7687 30.5L44.5451 29.8555L44.9382 29.4453C45.9225 28.4188 46.2253 26.87 45.6757 25.6743C45.2672 24.7857 44.8587 24.3539 44.0391 23.9443L43.322 23.5859H39.7669H36.2119L36.9259 22.623C38.3277 20.7324 38.9691 19.0375 38.8821 17.4536C38.8247 16.4088 38.5944 15.8204 37.96 15.0978C37.2627 14.3036 35.7979 13.8443 34.7735 14.0986ZM36.3045 16.1588C37.1835 16.7275 37.2669 18.0929 36.519 19.6679C35.9239 20.921 35.1698 21.9419 33.9588 23.1344C33.1351 23.9455 32.9304 24.2144 32.9334 24.4821C32.9377 24.8632 33.1087 25.1277 33.4786 25.3246C33.6607 25.4216 35.0646 25.4611 38.3419 25.4614C42.7048 25.4618 42.9691 25.4739 43.3243 25.6906C44.5939 26.4646 44.0808 28.5078 42.6169 28.5078C41.5864 28.5078 41.1328 28.8279 41.1328 29.5548C41.1328 30.0214 41.4606 30.3384 42.0451 30.4372C42.5893 30.5291 42.9741 30.8879 43.0763 31.3989C43.1346 31.6907 43.0827 31.8327 42.8034 32.1452C42.4802 32.507 42.3979 32.5357 41.4901 32.6023C40.6645 32.663 40.489 32.7139 40.3 32.9473C39.825 33.5339 40.2129 34.3111 41.047 34.4444C41.9937 34.5958 42.382 35.5152 41.79 36.2034C41.5358 36.4989 41.4239 36.5334 40.5888 36.5734C39.4713 36.6267 39.1406 36.8482 39.1406 37.5432C39.1406 38.0457 39.5531 38.4688 40.0431 38.4688C40.4815 38.4688 40.7849 38.6831 40.9685 39.1227C41.1136 39.47 41.1136 39.5769 40.9685 39.9242C40.8764 40.1445 40.6946 40.3818 40.5645 40.4516C40.4019 40.5385 37.9253 40.5781 32.6482 40.5781H24.9686L24.9355 35.8216L24.9023 31.0651L24.6257 30.8411C24.2558 30.5417 23.6109 30.5489 23.3484 30.8553C23.1633 31.0715 23.1391 31.575 23.0859 36.3338L23.0273 41.5742H19.9805H16.9336L16.9035 33.5176L16.8734 25.4609H19.9796H23.0859V26.6546C23.0859 27.7188 23.1136 27.8776 23.3407 28.1195C23.657 28.456 24.2415 28.4776 24.6257 28.1668C24.881 27.9603 24.906 27.8405 24.9493 26.6141L24.9964 25.2852L26.09 24.3138C27.0377 23.4719 27.3465 23.275 28.4055 22.8373C29.9798 22.1868 31.3836 21.247 32.4359 20.1393C33.3887 19.1362 33.7902 18.4304 33.9742 17.435C34.2172 16.1202 35.3152 15.5189 36.3045 16.1588ZM49.043 17.2732C48.4641 17.5967 48.347 18.239 48.7573 18.8398C49.6673 20.1726 50.9802 23.3171 51.4538 25.2989C52.2518 28.6384 52.2227 32.7204 51.3776 35.9729C49.3259 43.8698 43.0952 50.0342 35.2482 51.9309C33.2959 52.4028 32.0312 52.548 29.8828 52.547C26.4628 52.5453 23.5699 51.8961 20.4492 50.4298C19.1869 49.8366 17.2296 48.6143 16.2018 47.777C15.7001 47.3683 15.4709 47.2578 15.1246 47.2578C14.5651 47.2578 14.25 47.5834 14.25 48.1613C14.25 48.6737 14.676 49.0818 16.4784 50.2966C23.8079 55.2364 33.025 55.8276 40.8216 51.8579C47.5941 48.4096 52.1974 42.1733 53.6189 34.5209C53.8744 33.1457 53.977 29.3571 53.7997 27.8492C53.4585 24.9471 52.6746 22.323 51.3723 19.7231C50.2212 17.4253 49.7178 16.8958 49.043 17.2732ZM19.6248 37.6402C19.2012 37.8165 19.0482 38.1276 19.0881 38.7324C19.1112 39.084 19.5381 39.4062 19.9805 39.4062C20.617 39.4062 20.933 39.008 20.8636 38.293C20.8154 37.7961 20.1248 37.4322 19.6248 37.6402Z" fill="#7988FD"/>
</svg>
