<?xml version="1.0" encoding="UTF-8"?>
<svg viewBox="0 0 40 40" xmlns="http://www.w3.org/2000/svg">
<rect width="40" height="40" rx="8" fill="#1A1A1A"/>
<path d="m19.158 6.3253c-2.2704 0.37072-3.9961 2.1993-4.3073 4.564l-0.0676 0.5136-4.6777 0.0308-0.42108 0.1178c-1.6155 0.452-2.8821 1.7799-3.2793 3.438-0.16122 0.673-0.16227 1.5876-0.00252 2.2306 0.12463 0.5014 4.5723 13.611 4.7232 13.922 0.5829 1.2 1.643 2.0842 2.9444 2.4562l0.4142 0.1184h11.495l0.421-0.1197c0.4549-0.1294 1.0616-0.4132 1.4445-0.6756 0.6887-0.472 1.3822-1.3678 1.6668-2.153 0.1417-0.391 4.0488-13.301 4.1388-13.676 0.0528-0.2195 0.0714-0.4821 0.0707-0.9959-9e-4 -0.6135-0.0143-0.7493-0.1114-1.1242-0.204-0.7879-0.6028-1.5338-1.1223-2.0987-0.7112-0.7734-1.6492-1.2712-2.6738-1.4188-0.1971-0.0284-1.1884-0.0468-2.5233-0.0468h-2.1986l-0.0684-0.5125c-0.1976-1.4809-0.9562-2.7959-2.1012-3.6419-1.0694-0.79023-2.4796-1.138-3.7639-0.92836zm1.8014 1.4812c1.4994 0.45803 2.5525 1.7432 2.7466 3.3514l0.0301 0.2502h-7.5969l0.0301-0.2726c0.1866-1.6901 1.417-3.0545 3.0785-3.4134 0.4488-0.09696 1.2467-0.05762 1.7116 0.08439zm9.1039 5.296c0.5308 0.1844 0.8571 0.3914 1.2463 0.7908 0.4015 0.4119 0.6153 0.7649 0.7884 1.3019 0.0944 0.2928 0.1078 0.4077 0.1078 0.9232l1e-4 0.5888-0.3257 1.0685c-0.1791 0.5877-0.3352 1.0972-0.347 1.1322-0.0133 0.0395-0.0784-0.0431-0.1719-0.2181-0.4025-0.7533-1.0378-1.2216-1.8665-1.3757-0.2456-0.0457-1.0148-0.0591-3.4631-0.0602l-3.1474-0.0016-7e-4 -0.2507c-0.0037-1.2524-0.8912-2.3919-2.1478-2.7572-0.4451-0.1294-1.0307-0.1595-1.459-0.0752-0.6681 0.1316-1.1732 0.4069-1.6585 0.9039-0.5006 0.5126-0.7944 1.2232-0.7964 1.9264l-7e-4 0.2487-3.1685 0.0146c-3.5269 0.0163-3.3494 0.0018-3.9894 0.3245-0.39849 0.201-0.81402 0.6189-0.99882 1.0047l-0.12986 0.271-0.21806-0.6417c-0.39377-1.1589-0.45764-1.3791-0.50476-1.7404-0.07469-0.5732 0.03449-1.2267 0.29381-1.7581 0.42527-0.8716 1.2002-1.49 2.105-1.6796 0.2221-0.0465 2.093-0.056 9.9158-0.0503l9.6421 0.0071 0.2948 0.1025zm-9.6826 2.1231c0.852 0.2266 1.4339 0.8931 1.4839 1.6995l0.0203 0.3272h-4.0643l0.0203-0.3272c0.0732-1.1821 1.3281-2.0218 2.5398-1.6995zm9.3002 2.8447c0.3755 0.1481 0.5804 0.2876 0.8177 0.5566 0.341 0.3863 0.594 1.0394 0.5956 1.5372 9e-4 0.2722-2.8896 9.8101-3.1218 10.301-0.1385 0.2929-0.2489 0.4463-0.5365 0.7458-0.3993 0.4159-0.7377 0.6364-1.2603 0.8212l-0.3229 0.1141h-11.242l-0.3368-0.1188c-0.7688-0.2712-1.4553-0.8778-1.8091-1.5985-0.0397-0.0811-0.8285-2.3849-1.7526-5.1196-1.6705-4.9429-1.6804-4.9743-1.6804-5.32 0-0.3771 0.08311-0.7775 0.2184-1.0522 0.12888-0.2617 0.46834-0.6094 0.71933-0.7366 0.50758-0.2575-0.04068-0.2447 10.136-0.2364l9.3263 0.0077 0.2492 0.0983zm-10.702 3.5983c-0.4919 0.51-0.8944 0.9566-0.8944 0.9926 0 0.0716 1.764 1.9182 1.8323 1.9182 0.0232 0 0.4586-0.4317 0.9677-0.9595l0.9256-0.9595-0.9256-0.9595c-0.5091-0.5277-0.9449-0.9595-0.9684-0.9595-0.0236 0-0.4453 0.4173-0.9372 0.9272zm-2.4421 2.5296c-0.4919 0.51-0.8944 0.9468-0.8944 0.9708s0.4169 0.475 0.9263 1.0024l0.9263 0.9587 0.9264-0.9587c0.5094-0.5274 0.9263-0.9788 0.9263-1.0032 0-0.0712-1.7838-1.8972-1.8534-1.8972-0.0347 0-0.4656 0.4172-0.9575 0.9272zm4.8421 0c-0.4919 0.51-0.8944 0.9468-0.8944 0.9708s0.4169 0.475 0.9263 1.0024l0.9264 0.9587 0.9263-0.9587c0.5094-0.5274 0.9263-0.9788 0.9263-1.0032 0-0.0712-1.7838-1.8972-1.8534-1.8972-0.0347 0-0.4656 0.4172-0.9575 0.9272zm-2.4 2.486c-0.4919 0.5099-0.8944 0.9566-0.8944 0.9926 0 0.0715 1.764 1.9182 1.8323 1.9182 0.0232 0 0.4586-0.4318 0.9677-0.9595l0.9256-0.9595-0.9256-0.9595c-0.5091-0.5277-0.9449-0.9595-0.9684-0.9595-0.0236 0-0.4453 0.4172-0.9372 0.9272z" clip-rule="evenodd" fill="#fff" fill-rule="evenodd"/>
</svg>
